<svg width="25" height="25" viewBox="0 0 25 25" fill="none" xmlns="http://www.w3.org/2000/svg">
<g clip-path="url(#clip0_101_503)">
<path d="M24.3919 12.7339C24.3919 11.7096 24.3089 10.9622 24.1292 10.1871H12.4455V14.81H19.3036C19.1653 15.9589 18.4187 17.689 16.7594 18.8516L16.7362 19.0064L20.4303 21.8712L20.6863 21.8967C23.0368 19.7236 24.3919 16.5263 24.3919 12.7339Z" fill="#4285F4"/>
<path d="M12.4455 24.9141C15.8054 24.9141 18.626 23.8068 20.6863 21.8968L16.7594 18.8516C15.7086 19.5852 14.2982 20.0973 12.4455 20.0973C9.1547 20.0973 6.36168 17.9243 5.36605 14.9208L5.22012 14.9332L1.37886 17.9091L1.32862 18.0489C3.37498 22.1181 7.57837 24.9141 12.4455 24.9141Z" fill="#34A853"/>
<path d="M5.36617 14.9208C5.10346 14.1457 4.95143 13.3152 4.95143 12.457C4.95143 11.5988 5.10346 10.7684 5.35235 9.99331L5.34539 9.82823L1.45599 6.80457L1.32874 6.86516C0.485338 8.5538 0.00139236 10.4501 0.00139236 12.457C0.00139236 14.464 0.485338 16.3602 1.32874 18.0488L5.36617 14.9208Z" fill="#FBBC05"/>
<path d="M12.4455 4.81673C14.7822 4.81673 16.3584 5.82713 17.2572 6.6715L20.7692 3.23887C18.6123 1.2319 15.8053 3.05176e-05 12.4455 3.05176e-05C7.57836 3.05176e-05 3.37498 2.79593 1.32862 6.8652L5.35223 9.99335C6.36168 6.98982 9.15469 4.81673 12.4455 4.81673Z" fill="#EB4335"/>
</g>
<defs>
<clipPath id="clip0_101_503">
<rect width="24.4048" height="25" fill="white"/>
</clipPath>
</defs>
</svg>
